External Loads File
version=1
nRows=62
nColumns=13
Range=5.000000e-03-10 seconds
endheader
time 	forceRightX 	forceRightY 	forceRightZ 	pointRightX 	pointRightY 	pointRightZ 	forceLeftX 	forceLeftY 	forceLeftZ 	pointLeftX 	pointLeftY 	pointLeftZ 		
5.005000 -25.813512 -9.226954 -0.000000 0.220317 0.489765 -0.153044 143.430976 854.775182 -0.000000 0.321633 0.167339 -0.381737
5.010000 -28.791489 3.366586 -0.000000 0.228859 0.494835 -0.153415 163.168826 815.787515 -0.000000 0.312588 0.163279 -0.381662
5.015000 -30.942919 19.309409 -0.000000 0.237579 0.499061 -0.153771 179.428451 773.238473 -0.000000 0.303328 0.159815 -0.381573
5.020000 -32.059521 38.421657 -0.000000 0.246439 0.502633 -0.154155 191.998743 727.793045 -0.000000 0.293955 0.157156 -0.381466
5.025000 -31.966759 60.303234 -0.000000 0.255439 0.505429 -0.154464 201.019509 680.029464 -0.000000 0.284497 0.155120 -0.381350
5.030000 -30.603424 84.355788 -0.000000 0.264341 0.507290 -0.154429 206.204054 630.608090 -0.000000 0.274976 0.153727 -0.381223
5.035000 -28.020926 109.951434 -0.000000 0.273101 0.508405 -0.154196 207.824547 579.941793 -0.000000 0.265434 0.153088 -0.381058
5.040000 -24.446267 136.596452 -0.000000 0.281675 0.508533 -0.153929 206.085283 528.374652 -0.000000 0.255977 0.153140 -0.380869
5.045000 -20.261530 164.092301 -0.000000 0.289861 0.507944 -0.153599 201.209517 476.265223 -0.000000 0.246574 0.153989 -0.380605
5.050000 -15.783514 192.554062 -0.000000 0.297824 0.506600 -0.153152 193.858808 423.907272 -0.000000 0.237236 0.155522 -0.380374
5.055000 -11.479004 222.211662 -0.000000 0.305530 0.504503 -0.152652 184.277759 371.949040 -0.000000 0.228091 0.157750 -0.380146
5.060000 -7.577785 253.245869 -0.000000 0.313211 0.501679 -0.152269 173.185674 321.018205 -0.000000 0.219152 0.160785 -0.379855
5.065000 -4.687487 285.641184 -0.000000 0.320369 0.497775 -0.151599 160.751122 272.153016 -0.000000 0.210275 0.164358 -0.379592
5.070000 -3.069502 319.184861 -0.000000 0.327432 0.493318 -0.150988 147.608659 226.148742 -0.000000 0.201642 0.168653 -0.379368
5.075000 -2.831089 353.442471 -0.000000 0.334432 0.488109 -0.150403 134.258840 183.790397 -0.000000 0.193157 0.173562 -0.379173
5.080000 -3.991233 387.781783 -0.000000 0.341550 0.482218 -0.150101 121.127304 145.921950 -0.000000 0.184839 0.178872 -0.378981
5.085000 -6.943626 421.428531 -0.000000 0.348370 0.475643 -0.149845 108.604857 113.474648 -0.000000 0.176832 0.184783 -0.378753
5.090000 -10.985259 453.563620 -0.000000 0.355312 0.468518 -0.149285 97.488311 86.814464 -0.000000 0.169089 0.191358 -0.378624
5.095000 -16.409354 483.392991 -0.000000 0.361844 0.460764 -0.149354 88.179935 66.140362 -0.000000 0.161684 0.198504 -0.378454
5.100000 -23.246451 510.271689 -0.000000 0.368319 0.452787 -0.149504 81.027312 51.102770 -0.000000 0.154708 0.205913 -0.378237
5.105000 -30.954015 533.841326 -0.000000 0.374362 0.444189 -0.149315 76.204749 40.954896 -0.000000 0.148181 0.213953 -0.378139
5.110000 -39.228087 554.104238 -0.000000 0.380621 0.435281 -0.149785 73.612502 34.826367 -0.000000 0.142085 0.222224 -0.378071
5.115000 -49.127092 571.353646 -0.000000 0.386155 0.426071 -0.149855 72.886355 31.919044 -0.000000 0.136554 0.230846 -0.377967
5.120000 -59.652519 586.352809 -0.000000 0.391259 0.416382 -0.149830 73.667192 31.154437 -0.000000 0.131551 0.239893 -0.377989
5.125000 -70.449865 600.038156 -0.000000 0.396002 0.406241 -0.149790 75.487679 31.618099 -0.000000 0.127147 0.249346 -0.378017
5.130000 -81.960786 613.287867 -0.000000 0.400313 0.395985 -0.149743 77.811624 32.606653 -0.000000 0.123412 0.259048 -0.378033
5.135000 -93.101151 627.050322 -0.000000 0.404186 0.385444 -0.149690 80.182183 33.407887 -0.000000 0.120304 0.269057 -0.378064
5.140000 -103.305882 642.026048 -0.000000 0.407584 0.374619 -0.149625 82.159261 33.632572 -0.000000 0.117852 0.279272 -0.378008
5.145000 -112.602700 658.600116 -0.000000 0.410208 0.363686 -0.149168 83.366495 33.215963 -0.000000 0.116107 0.289567 -0.378018
5.150000 -119.908185 677.158235 -0.000000 0.412334 0.352621 -0.148940 83.626587 32.113696 -0.000000 0.115048 0.299972 -0.378039
5.155000 -124.486073 697.895937 -0.000000 0.414042 0.341783 -0.149119 82.872074 30.383863 -0.000000 0.114655 0.310868 -0.378064
5.160000 -127.017872 720.621979 -0.000000 0.415169 0.330412 -0.148982 81.042085 28.219271 -0.000000 0.114900 0.321034 -0.378080
5.165000 -126.954109 745.234665 -0.000000 0.415639 0.319389 -0.148901 78.161196 25.599992 -0.000000 0.115091 0.331445 -0.377313
5.170000 -120.058555 772.098514 -0.000000 0.415684 0.308114 -0.148925 74.346954 22.137975 -0.000000 0.116689 0.343007 -0.377390
5.175000 -114.214345 799.525595 -0.000000 0.415026 0.297032 -0.148960 69.310105 18.687701 -0.000000 0.118901 0.353028 -0.377493
5.180000 -102.318279 828.101393 -0.000000 0.413459 0.286039 -0.148816 63.231496 14.721436 -0.000000 0.122204 0.363882 -0.378145
5.185000 -90.663366 856.411982 -0.000000 0.411620 0.275238 -0.148306 56.083546 10.929764 -0.000000 0.125098 0.373921 -0.377666
5.190000 -74.884137 884.348147 -0.000000 0.409062 0.264460 -0.148044 48.145185 7.139173 -0.000000 0.129008 0.384123 -0.377667
5.195000 -57.013153 910.965155 -0.000000 0.405932 0.254034 -0.147836 39.634284 3.591250 -0.000000 0.133552 0.394239 -0.377798
5.200000 -38.323832 935.485153 -0.000000 0.402323 0.243994 -0.147694 30.825182 0.326392 -0.000000 0.138476 0.404083 -0.377717
5.205000 -17.987966 957.330638 -0.000000 0.398099 0.234224 -0.147624 21.972859 -2.820946 -0.000000 0.144035 0.413702 -0.377849
5.210000 2.596145 975.977148 -0.000000 0.393297 0.224923 -0.147567 13.256564 -6.030481 -0.000000 0.149968 0.423001 -0.377856
5.215000 23.918000 991.097640 -0.000000 0.387910 0.216024 -0.147403 4.778939 -9.572119 -0.000000 0.156393 0.432047 -0.377863
5.220000 44.827867 1002.482132 -0.000000 0.382081 0.207683 -0.147262 -3.421094 -13.692112 -0.000000 0.163209 0.440739 -0.377860
5.225000 65.988626 1009.925817 -0.000000 0.375756 0.199629 -0.147179 -11.391278 -18.578656 -0.000000 0.170342 0.449163 -0.377723
5.230000 88.717553 1013.075759 -0.000000 0.368985 0.191822 -0.146979 -19.233715 -24.233688 -0.000000 0.178523 0.457065 -0.377796
5.235000 109.715420 1011.912978 -0.000000 0.361740 0.185092 -0.146904 -26.945900 -30.542200 -0.000000 0.186547 0.465011 -0.377512
5.240000 130.974822 1005.976831 -0.000000 0.353905 0.178385 -0.146624 -34.623575 -37.100737 -0.000000 0.194426 0.473075 -0.377150
5.245000 148.293381 995.524644 -0.000000 0.346021 0.172582 -0.146494 -42.072495 -43.517727 -0.000000 0.202597 0.479233 -0.377063
5.250000 165.519417 979.721242 -0.000000 0.337849 0.167271 -0.146309 -49.292006 -48.983858 -0.000000 0.211130 0.485021 -0.376918
5.255000 182.087017 958.205346 -0.000000 0.329456 0.162583 -0.146152 -56.081858 -52.739414 -0.000000 0.219937 0.490500 -0.376863
5.260000 196.981781 930.728958 -0.000000 0.320890 0.158588 -0.145950 -62.199505 -54.071546 -0.000000 0.228897 0.495078 -0.376867
5.265000 210.572325 896.847400 -0.000000 0.312165 0.155175 -0.145770 -67.482290 -52.278983 -0.000000 0.238023 0.499187 -0.376865
5.270000 222.123775 856.490047 -0.000000 0.303305 0.152541 -0.145593 -71.709351 -46.889557 -0.000000 0.247232 0.502378 -0.376936
5.275000 231.372615 809.689138 -0.000000 0.294391 0.150603 -0.145341 -74.696077 -37.620289 -0.000000 0.256467 0.505013 -0.376993
5.280000 238.003575 756.699524 -0.000000 0.285459 0.149257 -0.145070 -76.279220 -24.451442 -0.000000 0.265751 0.506928 -0.377139
5.285000 241.434907 698.115549 -0.000000 0.276524 0.148696 -0.145085 -76.356291 -7.690538 -0.000000 0.274949 0.508408 -0.377417
5.290000 241.204466 634.814923 -0.000000 0.267750 0.148864 -0.144911 -74.987399 12.033012 -0.000000 0.284035 0.508971 -0.377966
5.295000 237.150481 567.913993 -0.000000 0.259113 0.149665 -0.144889 -72.463739 33.903283 -0.000000 0.292851 0.508719 -0.378257
5.300000 229.539661 498.713679 -0.000000 0.250565 0.151252 -0.144934 -69.299589 57.219724 -0.000000 0.301206 0.507160 -0.378934
5.305000 218.479138 428.941306 -0.000000 0.242196 0.153616 -0.144991 -66.237316 81.574089 -0.000000 0.308950 0.505095 -0.379977
5.310000 205.106764 360.091383 -0.000000 0.234017 0.156590 -0.145054 -63.967580 107.108013 -0.000000 0.316478 0.502249 -0.380501
